<svg xmlns="http://www.w3.org/2000/svg" width="150" height="30" fill="none" viewBox="0 0 150 30" class="PaymentMethodLogo ">
  <path fill="var(--paymentMethodLogoColor, #F90)" fill-rule="evenodd" d="M64.19 20.784c-3.765 2.779-9.232 4.261-13.926 4.261a25.199 25.199 0 01-17.009-6.489c-.355-.318-.039-.753.386-.506 4.843 2.818 10.83 4.515 17.019 4.515a33.886 33.886 0 0012.984-2.663c.635-.27 1.17.419.546.888m1.566-1.788c.483.616-.532 3.158-.989 4.293-.138.342.158.48.47.222 2.018-1.69 2.54-5.23 2.13-5.742-.41-.511-3.942-.945-6.097.57-.332.232-.275.554.094.51 1.213-.146 3.915-.471 4.396.147" clip-rule="evenodd"></path>
  <path fill="var(--paymentMethodLogoColor, #232F3E)" fill-rule="evenodd" d="M121.228 18.45c-.38.968-.819 1.662-1.316 2.083-.497.422-1.148.632-1.953.63a4.46 4.46 0 01-1.198-.147.614.614 0 01-.338-.2.713.713 0 01-.104-.43v-.547c0-.266.104-.4.316-.4.106.006.212.02.316.041.187.033.376.047.566.043.446.028.888-.106 1.243-.378.295-.252.561-.715.799-1.388l.399-1.066-4.051-10.015a1.598 1.598 0 01-.146-.506c0-.167.098-.252.293-.252h1.263a.76.76 0 01.463.105c.119.132.204.291.25.463l2.946 8.158 2.84-8.158c.046-.172.132-.33.251-.463a.758.758 0 01.463-.105h1.177c.197 0 .295.085.295.252a1.626 1.626 0 01-.147.506l-4.627 11.775zM61.47 7.547V6.075a.355.355 0 01.375-.371h6.592a.368.368 0 01.38.371v1.262c0 .212-.177.489-.495.925l-3.416 4.876c1.267-.03 2.608.16 3.76.807a.67.67 0 01.355.574v1.577c0 .216-.236.466-.486.337a7.591 7.591 0 00-6.965.012c-.23.123-.469-.124-.469-.34v-1.5c-.02-.354.064-.706.245-1.011l3.957-5.681h-3.451a.368.368 0 01-.382-.372M109.506 15.283a4.299 4.299 0 001.451-.272 5.494 5.494 0 001.45-.799v-2.146a10.62 10.62 0 00-1.104-.199 8.804 8.804 0 00-1.124-.075c-1.586 0-2.378.61-2.377 1.83 0 .534.147.944.442 1.231.295.288.716.431 1.262.43zm-2.46-7.531l-.158.053a.556.556 0 01-.178.032c-.177 0-.273-.126-.273-.38v-.563a.706.706 0 01.085-.41.789.789 0 01.335-.222 7.593 7.593 0 011.66-.463 11.109 11.109 0 011.976-.178c1.332 0 2.313.273 2.944.819.631.545.947 1.393.948 2.544v7.183a.376.376 0 01-.105.315.375.375 0 01-.316.106h-.905a.423.423 0 01-.462-.4l-.106-.694c-.495.43-1.06.77-1.671 1.009a4.947 4.947 0 01-1.82.355c-1.008 0-1.807-.284-2.396-.852-.59-.569-.886-1.33-.888-2.282 0-1.023.364-1.84 1.093-2.45.73-.61 1.711-.915 2.944-.914.894.014 1.783.133 2.649.355V9.334c0-.758-.168-1.29-.504-1.598-.336-.308-.925-.463-1.767-.464-1.046.01-2.085.172-3.085.48zM99.278 7.287a4.694 4.694 0 00-2.818.967v5.86c.898.674 1.823 1.01 2.776 1.01 1.934 0 2.901-1.303 2.901-3.907 0-2.603-.953-3.914-2.859-3.932v.002zm-2.965-.274c.504-.444 1.08-.8 1.703-1.05a4.996 4.996 0 011.85-.356 4.32 4.32 0 011.83.37 3.75 3.75 0 011.387 1.093c.401.52.698 1.114.873 1.747.213.75.316 1.528.306 2.308a7.98 7.98 0 01-.327 2.354 5.363 5.363 0 01-.914 1.788 4.132 4.132 0 01-1.431 1.147 4.233 4.233 0 01-1.87.393 4.69 4.69 0 01-3.258-1.243v4.928a.372.372 0 01-.42.421h-1.243a.37.37 0 01-.421-.42V6.34a.371.371 0 01.42-.42h.926a.444.444 0 01.484.42l.105.673zM31.933 16.826a.414.414 0 01-.474.048c-.666-.554-.787-.81-1.15-1.337-1.102 1.122-1.881 1.457-3.307 1.457-1.688 0-3.002-1.042-3.002-3.126 0-1.628.888-2.734 2.13-3.278 1.089-.477 2.609-.564 3.771-.696v-.259c0-.477.038-1.042-.243-1.456-.245-.369-.71-.52-1.125-.52-.766 0-1.447.393-1.614 1.204a.42.42 0 01-.355.37l-1.928-.212a.355.355 0 01-.299-.42c.446-2.357 2.576-3.069 4.485-3.069.977 0 2.251.26 3.018.998.975.913.888 2.13.888 3.453v3.123c0 .941.39 1.353.758 1.86.128.177.156.399 0 .532-.41.342-1.138.974-1.537 1.331l-.016-.003zm-2.023-4.89c0 .781.018 1.433-.374 2.13-.32.565-.826.913-1.39.913-.77 0-1.218-.586-1.218-1.456 0-1.707 1.532-2.018 2.982-2.018v.435-.004zM59.773 14.958c-.368-.506-.758-.918-.758-1.857V9.976c0-1.324.094-2.54-.888-3.453-.769-.738-2.043-.998-3.018-.998-1.909 0-4.04.71-4.487 3.07a.355.355 0 00.3.42l1.945.21a.422.422 0 00.355-.369c.168-.811.846-1.204 1.612-1.204.413 0 .887.153 1.125.522.283.412.245.977.245 1.454v.254c-1.163.13-2.684.217-3.77.694-1.258.544-2.14 1.65-2.14 3.28 0 2.082 1.314 3.124 3.002 3.124 1.42 0 2.205-.335 3.306-1.457.366.532.485.783 1.15 1.337a.417.417 0 00.474-.046c.4-.355 1.128-.99 1.538-1.332.172-.122.144-.34.009-.524zm-3.942-.9c-.317.563-.825.91-1.388.91-.769 0-1.218-.585-1.218-1.453 0-1.71 1.532-2.019 2.983-2.019v.433c0 .783.014 1.433-.377 2.13zM37.426 16.748H35.42a.377.377 0 01-.355-.34V6.112a.38.38 0 01.384-.367h1.87a.376.376 0 01.354.355v1.344h.038c.486-1.302 1.404-1.907 2.64-1.907 1.235 0 2.04.605 2.602 1.907a2.961 2.961 0 015.101-.79c.638.866.506 2.13.506 3.227v6.497a.377.377 0 01-.387.37H46.17a.375.375 0 01-.355-.369v-5.457c0-.433.037-1.516-.057-1.928-.15-.693-.599-.888-1.18-.888a1.332 1.332 0 00-1.198.843c-.206.522-.188 1.387-.188 1.973v5.456a.377.377 0 01-.385.37h-2.01a.376.376 0 01-.355-.369v-5.457c0-1.149.178-2.84-1.243-2.84-1.42 0-1.384 1.645-1.384 2.84v5.456a.379.379 0 01-.387.37M74.51 7.622c-1.48 0-1.574 2.014-1.574 3.27 0 1.258-.018 3.942 1.554 3.942 1.57 0 1.63-2.166 1.63-3.487 0-.866-.038-1.907-.3-2.729-.226-.71-.675-.996-1.31-.996zm-.02-2.102c2.977 0 4.587 2.557 4.587 5.806 0 3.14-1.775 5.632-4.587 5.632-2.92 0-4.512-2.557-4.512-5.74 0-3.184 1.61-5.698 4.512-5.698zM82.958 16.726H80.96a.374.374 0 01-.355-.369V6.06a.378.378 0 01.385-.338h1.86a.378.378 0 01.356.288v1.575h.04c.56-1.408 1.347-2.08 2.731-2.08.899 0 1.776.326 2.342 1.213.524.824.524 2.21.524 3.207v6.478a.382.382 0 01-.385.323H86.44a.374.374 0 01-.355-.323v-5.59c0-1.126.131-2.774-1.255-2.774a1.317 1.317 0 00-1.162.824c-.28.628-.317 1.257-.317 1.953v5.541a.383.383 0 01-.391.37" clip-rule="evenodd"></path>
  <title>Amazon Pay</title>
</svg>