<svg width="454" height="74" viewBox="0 0 454 74" fill="none" xmlns="http://www.w3.org/2000/svg">
<path d="M45.0823 11.5545L36.2507 20.5195L36.1753 20.4441L19.5779 37.4729L35.6506 53.5308L48.3577 40.5963L67.3826 40.8194L35.3373 72.8651L0 37.5278L35.5278 2L45.0823 11.5545Z" fill="white"/>
<path opacity="0.85" d="M51.9177 63.3105L60.7493 54.3455L60.8247 54.4209L77.4221 37.3921L61.3494 21.3342L48.6423 34.2687L29.6174 34.0456L61.6627 1.99988L97 37.3372L61.4722 72.865L51.9177 63.3105Z" fill="#6366F1"/>
<path d="M159.778 29.5189H148.794C148.594 28.0979 148.184 26.8357 147.565 25.7323C146.947 24.6122 146.153 23.6593 145.183 22.8735C144.213 22.0878 143.093 21.4859 141.823 21.068C140.569 20.65 139.206 20.4411 137.735 20.4411C135.077 20.4411 132.762 21.1014 130.789 22.4221C128.816 23.7262 127.286 25.632 126.2 28.1397C125.113 30.6307 124.57 33.6567 124.57 37.2176C124.57 40.8788 125.113 43.955 126.2 46.4459C127.303 48.9369 128.841 50.8177 130.814 52.0883C132.787 53.3589 135.069 53.9941 137.66 53.9941C139.114 53.9941 140.46 53.8019 141.697 53.4174C142.951 53.0328 144.063 52.4728 145.033 51.7372C146.002 50.9849 146.805 50.0738 147.44 49.0038C148.092 47.9339 148.543 46.7134 148.794 45.3426L159.778 45.3927C159.494 47.75 158.783 50.0236 157.646 52.2137C156.526 54.387 155.013 56.3347 153.107 58.0566C151.218 59.7619 148.961 61.116 146.337 62.1191C143.729 63.1055 140.778 63.5986 137.484 63.5986C132.904 63.5986 128.808 62.5621 125.197 60.4891C121.602 58.4161 118.76 55.4152 116.67 51.4864C114.597 47.5577 113.561 42.8014 113.561 37.2176C113.561 31.6171 114.614 26.8524 116.721 22.9237C118.827 18.995 121.686 16.0024 125.297 13.9461C128.908 11.8731 132.971 10.8366 137.484 10.8366C140.46 10.8366 143.219 11.2545 145.76 12.0904C148.318 12.9263 150.583 14.1467 152.556 15.7517C154.528 17.3399 156.133 19.2875 157.371 21.5946C158.624 23.9017 159.427 26.5431 159.778 29.5189ZM184.767 63.6488C180.872 63.6488 177.503 62.8213 174.661 61.1662C171.836 59.4944 169.654 57.1706 168.116 54.1948C166.578 51.2022 165.809 47.7332 165.809 43.7878C165.809 39.8089 166.578 36.3315 168.116 33.3557C169.654 30.3632 171.836 28.0394 174.661 26.3843C177.503 24.7125 180.872 23.8766 184.767 23.8766C188.662 23.8766 192.023 24.7125 194.848 26.3843C197.69 28.0394 199.88 30.3632 201.418 33.3557C202.956 36.3315 203.725 39.8089 203.725 43.7878C203.725 47.7332 202.956 51.2022 201.418 54.1948C199.88 57.1706 197.69 59.4944 194.848 61.1662C192.023 62.8213 188.662 63.6488 184.767 63.6488ZM184.817 55.3734C186.589 55.3734 188.069 54.8718 189.256 53.8688C190.443 52.849 191.337 51.4614 191.939 49.706C192.558 47.9506 192.867 45.9528 192.867 43.7126C192.867 41.4723 192.558 39.4745 191.939 37.7191C191.337 35.9637 190.443 34.5762 189.256 33.5564C188.069 32.5366 186.589 32.0267 184.817 32.0267C183.029 32.0267 181.524 32.5366 180.303 33.5564C179.1 34.5762 178.189 35.9637 177.57 37.7191C176.968 39.4745 176.667 41.4723 176.667 43.7126C176.667 45.9528 176.968 47.9506 177.57 49.706C178.189 51.4614 179.1 52.849 180.303 53.8688C181.524 54.8718 183.029 55.3734 184.817 55.3734ZM224.865 63.5234C221.94 63.5234 219.29 62.7711 216.916 61.2665C214.559 59.7451 212.686 57.5133 211.299 54.5709C209.928 51.6118 209.242 47.984 209.242 43.6875C209.242 39.2739 209.953 35.6043 211.374 32.6787C212.795 29.7363 214.684 27.5379 217.041 26.0834C219.415 24.6122 222.015 23.8766 224.84 23.8766C226.997 23.8766 228.794 24.2444 230.232 24.98C231.686 25.6989 232.857 26.6017 233.743 27.6883C234.645 28.7583 235.331 29.8115 235.799 30.848H236.125V11.5387H246.783V62.8965H236.25V56.7275H235.799C235.297 57.7975 234.587 58.8591 233.667 59.9123C232.765 60.9488 231.586 61.8098 230.132 62.4953C228.694 63.1807 226.938 63.5234 224.865 63.5234ZM228.251 55.0223C229.973 55.0223 231.427 54.5542 232.614 53.618C233.818 52.6651 234.737 51.336 235.373 49.6307C236.025 47.9255 236.351 45.9277 236.351 43.6373C236.351 41.347 236.033 39.3575 235.398 37.669C234.762 35.9805 233.843 34.6765 232.639 33.757C231.436 32.8375 229.973 32.3777 228.251 32.3777C226.495 32.3777 225.016 32.8542 223.812 33.8071C222.608 34.76 221.697 36.0808 221.079 37.7693C220.46 39.4578 220.151 41.4138 220.151 43.6373C220.151 45.8775 220.46 47.8586 221.079 49.5806C221.714 51.2858 222.625 52.6233 223.812 53.5929C225.016 54.5458 226.495 55.0223 228.251 55.0223ZM273.12 63.6488C269.158 63.6488 265.747 62.8463 262.888 61.2414C260.046 59.6198 257.856 57.3294 256.318 54.3703C254.78 51.3945 254.011 47.8753 254.011 43.8129C254.011 39.8507 254.78 36.3733 256.318 33.3808C257.856 30.3883 260.021 28.0561 262.813 26.3843C265.622 24.7125 268.915 23.8766 272.694 23.8766C275.235 23.8766 277.6 24.2862 279.79 25.1054C281.997 25.9079 283.92 27.1199 285.558 28.7416C287.213 30.3632 288.5 32.4028 289.42 34.8604C290.339 37.3012 290.799 40.16 290.799 43.4367V46.3707H258.274V39.7504H280.743C280.743 38.2123 280.409 36.8498 279.74 35.6628C279.071 34.4758 278.144 33.548 276.957 32.8793C275.786 32.1938 274.424 31.8511 272.869 31.8511C271.247 31.8511 269.81 32.2273 268.556 32.9796C267.319 33.7152 266.349 34.7099 265.647 35.9637C264.945 37.2009 264.585 38.5801 264.569 40.1015V46.3958C264.569 48.3016 264.92 49.9484 265.622 51.336C266.341 52.7236 267.352 53.7935 268.656 54.5458C269.96 55.2981 271.507 55.6743 273.295 55.6743C274.482 55.6743 275.569 55.5071 276.555 55.1728C277.542 54.8384 278.386 54.3369 279.088 53.6681C279.79 52.9994 280.325 52.1802 280.693 51.2106L290.573 51.8626C290.072 54.2365 289.044 56.3096 287.489 58.0817C285.951 59.8371 283.961 61.208 281.521 62.1943C279.097 63.164 276.296 63.6488 273.12 63.6488ZM297.771 62.8965V24.3782H308.127V31.0988H308.529C309.231 28.7081 310.409 26.9026 312.064 25.6822C313.72 24.445 315.625 23.8265 317.782 23.8265C318.317 23.8265 318.894 23.8599 319.512 23.9268C320.131 23.9936 320.674 24.0856 321.142 24.2026V33.6817C320.641 33.5313 319.947 33.3975 319.061 33.2805C318.175 33.1635 317.364 33.105 316.629 33.105C315.057 33.105 313.653 33.4477 312.416 34.1331C311.195 34.8018 310.226 35.7381 309.507 36.9418C308.804 38.1454 308.453 39.533 308.453 41.1045V62.8965H297.771ZM358.714 35.3619L348.934 35.9637C348.767 35.1278 348.407 34.3755 347.856 33.7068C347.304 33.0214 346.577 32.478 345.674 32.0768C344.788 31.6589 343.726 31.4499 342.489 31.4499C340.834 31.4499 339.438 31.801 338.301 32.5031C337.165 33.1886 336.596 34.108 336.596 35.2616C336.596 36.1811 336.964 36.9585 337.699 37.5938C338.435 38.229 339.697 38.7389 341.486 39.1235L348.458 40.5278C352.202 41.2968 354.994 42.5339 356.833 44.2392C358.672 45.9444 359.592 48.1846 359.592 50.9598C359.592 53.4842 358.848 55.6994 357.36 57.6052C355.889 59.5111 353.866 60.999 351.291 62.0689C348.733 63.1222 345.783 63.6488 342.439 63.6488C337.34 63.6488 333.278 62.5872 330.252 60.464C327.242 58.3241 325.479 55.4152 324.96 51.7372L335.468 51.1855C335.785 52.7403 336.554 53.9273 337.775 54.7464C338.995 55.5489 340.558 55.9501 342.464 55.9501C344.337 55.9501 345.841 55.5907 346.978 54.8718C348.132 54.1362 348.717 53.1917 348.733 52.0381C348.717 51.0685 348.307 50.2744 347.505 49.6558C346.702 49.0205 345.465 48.5357 343.793 48.2013L337.123 46.8723C333.361 46.1199 330.561 44.8159 328.722 42.9602C326.9 41.1045 325.989 38.7389 325.989 35.8634C325.989 33.3892 326.657 31.2576 327.995 29.4688C329.349 27.68 331.246 26.3007 333.687 25.3311C336.145 24.3614 339.02 23.8766 342.314 23.8766C347.179 23.8766 351.007 24.9048 353.799 26.9611C356.608 29.0174 358.246 31.8177 358.714 35.3619ZM386.807 24.3782V32.4028H363.61V24.3782H386.807ZM368.877 15.1498H379.559V51.0601C379.559 52.0465 379.71 52.8155 380.011 53.3672C380.312 53.9022 380.73 54.2783 381.265 54.4957C381.816 54.713 382.452 54.8217 383.17 54.8217C383.672 54.8217 384.174 54.7799 384.675 54.6963C385.177 54.596 385.561 54.5208 385.829 54.4706L387.509 62.42C386.974 62.5872 386.221 62.7795 385.252 62.9968C384.282 63.2308 383.104 63.3729 381.716 63.4231C379.141 63.5234 376.884 63.1807 374.945 62.3949C373.023 61.6092 371.526 60.3888 370.456 58.7337C369.386 57.0786 368.86 54.9889 368.877 52.4644V15.1498ZM393.765 62.8965V24.3782H403.947V31.174H404.398C405.201 28.9171 406.538 27.1366 408.41 25.8326C410.283 24.5286 412.523 23.8766 415.131 23.8766C417.773 23.8766 420.021 24.537 421.877 25.8577C423.733 27.1617 424.97 28.9338 425.588 31.174H425.989C426.775 28.9673 428.196 27.2035 430.253 25.8828C432.326 24.5453 434.775 23.8766 437.6 23.8766C441.195 23.8766 444.112 25.0218 446.352 27.3122C448.609 29.5858 449.737 32.8124 449.737 36.9919V62.8965H439.08V39.0984C439.08 36.9585 438.511 35.3535 437.374 34.2836C436.238 33.2136 434.817 32.6787 433.111 32.6787C431.172 32.6787 429.659 33.2972 428.572 34.5344C427.486 35.7548 426.942 37.3681 426.942 39.3742V62.8965H416.586V38.8727C416.586 36.9835 416.042 35.4789 414.956 34.3588C413.886 33.2387 412.473 32.6787 410.718 32.6787C409.531 32.6787 408.461 32.9796 407.508 33.5814C406.571 34.1666 405.828 34.9941 405.276 36.0641C404.724 37.1173 404.448 38.3544 404.448 39.7755V62.8965H393.765Z" fill="#F2F2F2"/>
</svg>
