<svg xmlns="http://www.w3.org/2000/svg" width="150" height="30" fill="none" viewBox="0 0 150 30" class="PaymentMethodLogo ">
  <path fill="var(--paymentMethodLogoColor, #0A2540)" d="M67.176 19.51v-4.698c0-1.772-1.13-2.965-2.95-2.981a2.903 2.903 0 00-2.633 1.334 2.753 2.753 0 00-2.477-1.334 2.48 2.48 0 00-2.192 1.115v-.94h-1.632v7.503h1.647v-4.155c0-1.303.72-1.992 1.836-1.992 1.114 0 1.631.705 1.631 1.976v4.171h1.638v-4.155c0-1.303.751-1.992 1.835-1.992 1.083 0 1.647.705 1.647 1.976v4.171h1.65zm24.373-7.498h-2.665V9.74h-1.647v2.273h-1.522v1.491h1.522v3.417c0 1.74.673 2.777 2.602 2.777a3.834 3.834 0 002.039-.579l-.47-1.397c-.438.261-.934.407-1.444.423-.814 0-1.083-.501-1.083-1.253v-3.388h2.665l.003-1.49zm13.913-.187a2.212 2.212 0 00-1.976 1.099v-.912h-1.615v7.497h1.631v-4.202c0-1.253.532-1.93 1.6-1.93.35-.004.696.06 1.021.189l.501-1.538a3.487 3.487 0 00-1.162-.203zm-21.034.783a5.606 5.606 0 00-3.06-.783c-1.897 0-3.131.91-3.131 2.398 0 1.225.908 1.976 2.587 2.211l.767.11c.892.125 1.318.36 1.318.783 0 .58-.595.911-1.71.911a3.996 3.996 0 01-2.505-.783l-.742 1.268a5.408 5.408 0 003.247.974c2.164 0 3.42-1.02 3.42-2.445 0-1.319-.99-2.008-2.618-2.243l-.767-.11c-.705-.093-1.272-.234-1.272-.735 0-.548.533-.877 1.428-.877.82.012 1.625.233 2.337.642l.7-1.322zm43.691-.783a2.211 2.211 0 00-1.976 1.099v-.912h-1.616v7.497h1.632v-4.202c0-1.253.532-1.93 1.6-1.93a2.66 2.66 0 011.021.189l.501-1.538a3.487 3.487 0 00-1.162-.203zM107.11 15.76c0 2.273 1.584 3.936 3.999 3.936a3.927 3.927 0 002.696-.895l-.783-1.319a3.296 3.296 0 01-1.96.674c-1.303 0-2.258-.959-2.258-2.4 0-1.44.958-2.382 2.258-2.398a3.295 3.295 0 011.96.673l.783-1.318a3.927 3.927 0 00-2.696-.896c-2.415 0-3.999 1.663-3.999 3.937v.006zm15.275 0v-3.758h-1.631v.911a2.845 2.845 0 00-2.368-1.099c-2.101 0-3.758 1.647-3.758 3.937 0 2.289 1.648 3.936 3.758 3.936a2.845 2.845 0 002.368-1.1v.909h1.631V15.76zm-6.069 0c0-1.318.861-2.399 2.274-2.399 1.349 0 2.258 1.037 2.258 2.399s-.909 2.399-2.258 2.399c-1.413 0-2.274-1.084-2.274-2.399zm-19.684-3.936c-2.193 0-3.733 1.6-3.733 3.936 0 2.383 1.6 3.936 3.842 3.936a4.557 4.557 0 003.075-1.052l-.798-1.209a3.573 3.573 0 01-2.192.783c-1.053 0-2.008-.485-2.242-1.835h5.567c.016-.203.032-.407.032-.626 0-2.336-1.46-3.936-3.56-3.936l.008.003zm-.032 1.459c1.052 0 1.726.657 1.898 1.82h-3.886c.172-1.084.83-1.82 1.991-1.82H96.6zm40.914 2.477V9h-1.632v3.92a2.843 2.843 0 00-2.367-1.098c-2.102 0-3.758 1.647-3.758 3.936 0 2.289 1.647 3.936 3.758 3.936.92.039 1.803-.37 2.367-1.099v.908h1.632v-3.742zm-6.063 0c0-1.318.861-2.399 2.273-2.399 1.35 0 2.258 1.037 2.258 2.399s-.908 2.399-2.258 2.399c-1.412 0-2.273-1.084-2.273-2.399zm-55.084 0v-3.758h-1.631v.911a2.844 2.844 0 00-2.358-1.09c-2.101 0-3.758 1.648-3.758 3.937 0 2.29 1.647 3.936 3.758 3.936.92.04 1.803-.37 2.367-1.099v.908h1.632l-.01-3.745zm-6.069 0c0-1.318.862-2.399 2.274-2.399 1.35 0 2.258 1.037 2.258 2.399s-.908 2.399-2.258 2.399c-1.412 0-2.273-1.08-2.273-2.399z"></path>
  <path fill="var(--paymentMethodLogoColor, #FF5F00)" d="M34.474 6.158H24.61v17.727h9.864V6.159z"></path>
  <path fill="var(--paymentMethodLogoColor, #EB001B)" d="M25.236 15.027a11.254 11.254 0 014.306-8.863 11.273 11.273 0 100 17.728 11.255 11.255 0 01-4.306-8.865z"></path>
  <path fill="var(--paymentMethodLogoColor, #F79E1B)" d="M47.783 15.026a11.273 11.273 0 01-18.241 8.863 11.274 11.274 0 000-17.728 11.274 11.274 0 0118.24 8.865z"></path>
  <title>Mastercard</title>
</svg>