<svg xmlns="http://www.w3.org/2000/svg" width="150" height="30" fill="none" viewBox="0 0 150 30" class="PaymentMethodLogo ">
  <path fill="var(--paymentMethodLogoColor, #1434CB)" d="M74.998 6.642l-3.534 16.972h-4.29l3.533-16.972h4.29zm17.794 10.967l2.272-6.398 1.262 6.398h-3.534zm4.796 6.005h3.912L98.093 6.642h-3.66c-.758 0-1.515.522-1.767 1.305l-6.31 15.667h4.417l.883-2.48h5.427l.505 2.48zM86.482 18c0-4.439-5.931-4.7-5.931-6.658.126-.914.883-1.436 1.766-1.436 1.389-.13 2.903.13 4.165.783l.757-3.656a10.455 10.455 0 00-3.912-.783c-4.165 0-7.194 2.35-7.194 5.614 0 2.48 2.146 3.786 3.66 4.57 1.64.783 2.272 1.305 2.146 2.088 0 1.176-1.262 1.698-2.524 1.698-1.515 0-3.03-.392-4.417-1.045l-.758 3.656c1.515.653 3.155.914 4.67.914 4.67.13 7.572-2.22 7.572-5.745zM68.94 6.642l-6.815 16.972h-4.543l-3.408-13.578c0-.653-.505-1.175-1.01-1.436-1.261-.653-2.65-1.175-4.164-1.436l.126-.522h7.194c1.01 0 1.767.783 1.893 1.697l1.767 9.792 4.543-11.49h4.417z"></path>
  <title>Visa</title>
</svg>