<svg width="80" height="80" viewBox="0 0 80 80" fill="none" xmlns="http://www.w3.org/2000/svg">
<g clip-path="url(#clip0_196_563)">
<rect width="80" height="80" fill="#B6B6B6"/>
<path d="M80 0H0V80H80V0Z" fill="#496AE4"/>
<path opacity="0.39" d="M80 67H0V80H80V67Z" fill="black"/>
<path d="M12.492 76.4135C12.0632 76.4135 11.6932 76.3189 11.3822 76.1296C11.0731 75.9383 10.8345 75.6717 10.6665 75.3298C10.5003 74.9859 10.4173 74.586 10.4173 74.1301C10.4173 73.6742 10.5003 73.2724 10.6665 72.9247C10.8345 72.575 11.0683 72.3026 11.3677 72.1075C11.6691 71.9105 12.0207 71.8119 12.4225 71.8119C12.6543 71.8119 12.8832 71.8506 13.1093 71.9278C13.3353 72.0051 13.541 72.1307 13.7265 72.3046C13.9119 72.4765 14.0597 72.7044 14.1698 72.9884C14.2799 73.2724 14.335 73.6221 14.335 74.0374V74.3272H10.9041V73.736H13.6395C13.6395 73.4849 13.5893 73.2608 13.4889 73.0638C13.3903 72.8667 13.2493 72.7112 13.0658 72.5972C12.8842 72.4832 12.6698 72.4263 12.4225 72.4263C12.1501 72.4263 11.9144 72.4939 11.7155 72.6291C11.5184 72.7624 11.3668 72.9363 11.2605 73.1507C11.1543 73.3651 11.1011 73.595 11.1011 73.8403V74.2344C11.1011 74.5706 11.1591 74.8555 11.275 75.0893C11.3928 75.3211 11.5561 75.4978 11.7647 75.6196C11.9734 75.7393 12.2158 75.7992 12.492 75.7992C12.6717 75.7992 12.834 75.7741 12.9789 75.7239C13.1257 75.6717 13.2522 75.5944 13.3585 75.4921C13.4647 75.3877 13.5468 75.2583 13.6048 75.1038L14.2655 75.2892C14.1959 75.5133 14.079 75.7103 13.9148 75.8803C13.7506 76.0484 13.5478 76.1798 13.3063 76.2744C13.0648 76.3672 12.7934 76.4135 12.492 76.4135ZM15.3753 76.3208V71.8699H16.036V72.5653H16.0939C16.1866 72.3277 16.3364 72.1432 16.5431 72.0119C16.7498 71.8786 16.998 71.8119 17.2878 71.8119C17.5814 71.8119 17.8258 71.8786 18.0209 72.0119C18.218 72.1432 18.3715 72.3277 18.4816 72.5653H18.528C18.642 72.3355 18.813 72.1529 19.0409 72.0177C19.2689 71.8805 19.5422 71.8119 19.861 71.8119C20.2589 71.8119 20.5844 71.9365 20.8375 72.1857C21.0906 72.433 21.2171 72.8184 21.2171 73.3419V76.3208H20.5332V73.3419C20.5332 73.0135 20.4434 72.7788 20.2637 72.6378C20.0841 72.4968 19.8726 72.4263 19.6291 72.4263C19.3162 72.4263 19.0738 72.5209 18.9018 72.7102C18.7299 72.8976 18.6439 73.1352 18.6439 73.4231V76.3208H17.9485V73.2724C17.9485 73.0193 17.8664 72.8155 17.7022 72.661C17.538 72.5045 17.3264 72.4263 17.0676 72.4263C16.8898 72.4263 16.7237 72.4736 16.5691 72.5682C16.4165 72.6629 16.2929 72.7943 16.1982 72.9623C16.1055 73.1285 16.0591 73.3207 16.0591 73.539V76.3208H15.3753ZM23.7772 76.4251C23.4952 76.4251 23.2392 76.372 23.0093 76.2657C22.7795 76.1576 22.5969 76.0021 22.4617 75.7992C22.3264 75.5944 22.2588 75.3472 22.2588 75.0574C22.2588 74.8024 22.3091 74.5957 22.4095 74.4373C22.51 74.2769 22.6442 74.1514 22.8123 74.0606C22.9804 73.9698 23.1658 73.9022 23.3687 73.8577C23.5734 73.8114 23.7792 73.7747 23.9859 73.7476C24.2563 73.7128 24.4756 73.6868 24.6437 73.6694C24.8137 73.6501 24.9373 73.6182 25.0146 73.5738C25.0938 73.5293 25.1334 73.4521 25.1334 73.3419V73.3188C25.1334 73.0328 25.0551 72.8107 24.8987 72.6523C24.7441 72.4939 24.5094 72.4147 24.1945 72.4147C23.868 72.4147 23.6121 72.4861 23.4266 72.6291C23.2412 72.7721 23.1108 72.9247 23.0354 73.0869L22.3863 72.8551C22.5022 72.5847 22.6568 72.3741 22.85 72.2234C23.0451 72.0708 23.2576 71.9646 23.4875 71.9047C23.7193 71.8428 23.9472 71.8119 24.1713 71.8119C24.3143 71.8119 24.4785 71.8293 24.6639 71.8641C24.8513 71.8969 25.032 71.9655 25.2058 72.0698C25.3816 72.1742 25.5275 72.3316 25.6434 72.5422C25.7593 72.7527 25.8172 73.0348 25.8172 73.3883V76.3208H25.1334V75.7181H25.0986C25.0522 75.8147 24.975 75.918 24.8668 76.0281C24.7586 76.1382 24.6147 76.2319 24.435 76.3092C24.2554 76.3865 24.0361 76.4251 23.7772 76.4251ZM23.8816 75.8108C24.152 75.8108 24.38 75.7577 24.5654 75.6514C24.7528 75.5452 24.8938 75.408 24.9885 75.2399C25.0851 75.0719 25.1334 74.8951 25.1334 74.7097V74.0838C25.1044 74.1185 25.0407 74.1504 24.9421 74.1794C24.8455 74.2064 24.7335 74.2306 24.606 74.2518C24.4804 74.2711 24.3578 74.2885 24.238 74.304C24.1201 74.3175 24.0245 74.3291 23.9511 74.3388C23.7734 74.3619 23.6072 74.3996 23.4527 74.4518C23.3001 74.502 23.1764 74.5783 23.0818 74.6807C22.9891 74.7811 22.9427 74.9183 22.9427 75.0922C22.9427 75.3298 23.0306 75.5094 23.2064 75.6311C23.3841 75.7509 23.6092 75.8108 23.8816 75.8108ZM27.0654 76.3208V71.8699H27.7493V76.3208H27.0654ZM27.4132 71.1281C27.2799 71.1281 27.1649 71.0827 27.0683 70.9919C26.9737 70.9011 26.9263 70.7919 26.9263 70.6644C26.9263 70.5369 26.9737 70.4278 27.0683 70.337C27.1649 70.2462 27.2799 70.2008 27.4132 70.2008C27.5465 70.2008 27.6604 70.2462 27.7551 70.337C27.8517 70.4278 27.9 70.5369 27.9 70.6644C27.9 70.7919 27.8517 70.9011 27.7551 70.9919C27.6604 71.0827 27.5465 71.1281 27.4132 71.1281ZM29.6857 70.3863V76.3208H29.0018V70.3863H29.6857ZM36.8728 71.8699L35.2269 76.3208H34.5314L32.8855 71.8699H33.6273L34.856 75.4167H34.9023L36.131 71.8699H36.8728ZM38.9497 76.4251C38.6677 76.4251 38.4117 76.372 38.1818 76.2657C37.952 76.1576 37.7694 76.0021 37.6342 75.7992C37.4989 75.5944 37.4313 75.3472 37.4313 75.0574C37.4313 74.8024 37.4816 74.5957 37.582 74.4373C37.6825 74.2769 37.8167 74.1514 37.9848 74.0606C38.1529 73.9698 38.3383 73.9022 38.5412 73.8577C38.7459 73.8114 38.9517 73.7747 39.1584 73.7476C39.4288 73.7128 39.6481 73.6868 39.8162 73.6694C39.9862 73.6501 40.1098 73.6182 40.1871 73.5738C40.2663 73.5293 40.3059 73.4521 40.3059 73.3419V73.3188C40.3059 73.0328 40.2276 72.8107 40.0712 72.6523C39.9166 72.4939 39.6819 72.4147 39.367 72.4147C39.0405 72.4147 38.7846 72.4861 38.5991 72.6291C38.4137 72.7721 38.2833 72.9247 38.2079 73.0869L37.5588 72.8551C37.6747 72.5847 37.8293 72.3741 38.0225 72.2234C38.2176 72.0708 38.4301 71.9646 38.66 71.9047C38.8918 71.8428 39.1197 71.8119 39.3438 71.8119C39.4868 71.8119 39.651 71.8293 39.8364 71.8641C40.0238 71.8969 40.2045 71.9655 40.3783 72.0698C40.5541 72.1742 40.7 72.3316 40.8159 72.5422C40.9318 72.7527 40.9897 73.0348 40.9897 73.3883V76.3208H40.3059V75.7181H40.2711C40.2247 75.8147 40.1475 75.918 40.0393 76.0281C39.9311 76.1382 39.7872 76.2319 39.6075 76.3092C39.4279 76.3865 39.2086 76.4251 38.9497 76.4251ZM39.0541 75.8108C39.3245 75.8108 39.5525 75.7577 39.7379 75.6514C39.9253 75.5452 40.0663 75.408 40.161 75.2399C40.2576 75.0719 40.3059 74.8951 40.3059 74.7097V74.0838C40.2769 74.1185 40.2132 74.1504 40.1146 74.1794C40.018 74.2064 39.906 74.2306 39.7785 74.2518C39.6529 74.2711 39.5303 74.2885 39.4105 74.304C39.2926 74.3175 39.197 74.3291 39.1236 74.3388C38.9459 74.3619 38.7797 74.3996 38.6252 74.4518C38.4726 74.502 38.3489 74.5783 38.2543 74.6807C38.1616 74.7811 38.1152 74.9183 38.1152 75.0922C38.1152 75.3298 38.2031 75.5094 38.3789 75.6311C38.5566 75.7509 38.7817 75.8108 39.0541 75.8108ZM42.9218 70.3863V76.3208H42.2379V70.3863H42.9218ZM44.1743 76.3208V71.8699H44.8582V76.3208H44.1743ZM44.5221 71.1281C44.3888 71.1281 44.2738 71.0827 44.1772 70.9919C44.0826 70.9011 44.0353 70.7919 44.0353 70.6644C44.0353 70.5369 44.0826 70.4278 44.1772 70.337C44.2738 70.2462 44.3888 70.2008 44.5221 70.2008C44.6554 70.2008 44.7693 70.2462 44.864 70.337C44.9606 70.4278 45.0089 70.5369 45.0089 70.6644C45.0089 70.7919 44.9606 70.9011 44.864 70.9919C44.7693 71.0827 44.6554 71.1281 44.5221 71.1281ZM47.7914 76.4135C47.4205 76.4135 47.0931 76.3198 46.8091 76.1324C46.5251 75.9431 46.303 75.6765 46.1426 75.3327C45.9823 74.9869 45.9021 74.5783 45.9021 74.1069C45.9021 73.6394 45.9823 73.2338 46.1426 72.8899C46.303 72.546 46.5261 72.2804 46.812 72.093C47.0979 71.9056 47.4283 71.8119 47.803 71.8119C48.0928 71.8119 48.3217 71.8602 48.4898 71.9568C48.6598 72.0515 48.7892 72.1597 48.8781 72.2814C48.9689 72.4011 49.0394 72.4997 49.0896 72.5769H49.1476V70.3863H49.8314V76.3208H49.1708V75.6369H49.0896C49.0394 75.7181 48.9679 75.8205 48.8752 75.9441C48.7825 76.0658 48.6501 76.1749 48.4782 76.2715C48.3063 76.3662 48.0773 76.4135 47.7914 76.4135ZM47.8842 75.7992C48.1585 75.7992 48.3903 75.7277 48.5796 75.5848C48.7689 75.4399 48.9129 75.2399 49.0114 74.9849C49.1099 74.728 49.1592 74.4315 49.1592 74.0953C49.1592 73.7631 49.1109 73.4723 49.0143 73.2231C48.9177 72.972 48.7747 72.7769 48.5854 72.6378C48.3961 72.4968 48.1623 72.4263 47.8842 72.4263C47.5944 72.4263 47.3529 72.5006 47.1597 72.6494C46.9685 72.7962 46.8246 72.9961 46.728 73.2492C46.6333 73.5003 46.586 73.7824 46.586 74.0953C46.586 74.4122 46.6343 74.7 46.7309 74.9589C46.8294 75.2158 46.9743 75.4206 47.1655 75.5732C47.3587 75.7239 47.5983 75.7992 47.8842 75.7992ZM52.4886 76.4251C52.2066 76.4251 51.9506 76.372 51.7208 76.2657C51.4909 76.1576 51.3083 76.0021 51.1731 75.7992C51.0379 75.5944 50.9702 75.3472 50.9702 75.0574C50.9702 74.8024 51.0205 74.5957 51.1209 74.4373C51.2214 74.2769 51.3556 74.1514 51.5237 74.0606C51.6918 73.9698 51.8772 73.9022 52.0801 73.8577C52.2848 73.8114 52.4906 73.7747 52.6973 73.7476C52.9677 73.7128 53.187 73.6868 53.3551 73.6694C53.5251 73.6501 53.6487 73.6182 53.726 73.5738C53.8052 73.5293 53.8448 73.4521 53.8448 73.3419V73.3188C53.8448 73.0328 53.7665 72.8107 53.6101 72.6523C53.4555 72.4939 53.2208 72.4147 52.9059 72.4147C52.5794 72.4147 52.3235 72.4861 52.138 72.6291C51.9526 72.7721 51.8222 72.9247 51.7468 73.0869L51.0977 72.8551C51.2136 72.5847 51.3682 72.3741 51.5614 72.2234C51.7565 72.0708 51.969 71.9646 52.1989 71.9047C52.4307 71.8428 52.6586 71.8119 52.8827 71.8119C53.0257 71.8119 53.1899 71.8293 53.3754 71.8641C53.5627 71.8969 53.7434 71.9655 53.9172 72.0698C54.093 72.1742 54.2389 72.3316 54.3548 72.5422C54.4707 72.7527 54.5286 73.0348 54.5286 73.3883V76.3208H53.8448V75.7181H53.81C53.7636 75.8147 53.6864 75.918 53.5782 76.0281C53.47 76.1382 53.3261 76.2319 53.1464 76.3092C52.9668 76.3865 52.7475 76.4251 52.4886 76.4251ZM52.593 75.8108C52.8634 75.8108 53.0914 75.7577 53.2768 75.6514C53.4642 75.5452 53.6052 75.408 53.6999 75.2399C53.7965 75.0719 53.8448 74.8951 53.8448 74.7097V74.0838C53.8158 74.1185 53.7521 74.1504 53.6535 74.1794C53.5569 74.2064 53.4449 74.2306 53.3174 74.2518C53.1918 74.2711 53.0692 74.2885 52.9494 74.304C52.8315 74.3175 52.7359 74.3291 52.6625 74.3388C52.4848 74.3619 52.3186 74.3996 52.1641 74.4518C52.0115 74.502 51.8879 74.5783 51.7932 74.6807C51.7005 74.7811 51.6541 74.9183 51.6541 75.0922C51.6541 75.3298 51.742 75.5094 51.9178 75.6311C52.0955 75.7509 52.3206 75.8108 52.593 75.8108ZM57.7125 71.8699V72.4494H55.4059V71.8699H57.7125ZM56.0782 70.8035H56.7621V75.0458C56.7621 75.239 56.7901 75.3839 56.8461 75.4805C56.9041 75.5751 56.9775 75.6389 57.0663 75.6717C57.1571 75.7026 57.2528 75.7181 57.3532 75.7181C57.4285 75.7181 57.4904 75.7142 57.5387 75.7065C57.587 75.6968 57.6256 75.6891 57.6546 75.6833L57.7937 76.2976C57.7473 76.315 57.6826 76.3324 57.5995 76.3498C57.5164 76.3691 57.4112 76.3788 57.2837 76.3788C57.0905 76.3788 56.9012 76.3372 56.7157 76.2542C56.5322 76.1711 56.3796 76.0446 56.2579 75.8746C56.1381 75.7046 56.0782 75.4901 56.0782 75.2313V70.8035ZM58.7412 76.3208V71.8699H59.4251V76.3208H58.7412ZM59.0889 71.1281C58.9557 71.1281 58.8407 71.0827 58.7441 70.9919C58.6495 70.9011 58.6021 70.7919 58.6021 70.6644C58.6021 70.5369 58.6495 70.4278 58.7441 70.337C58.8407 70.2462 58.9557 70.2008 59.0889 70.2008C59.2222 70.2008 59.3362 70.2462 59.4309 70.337C59.5275 70.4278 59.5758 70.5369 59.5758 70.6644C59.5758 70.7919 59.5275 70.9011 59.4309 70.9919C59.3362 71.0827 59.2222 71.1281 59.0889 71.1281ZM62.4858 76.4135C62.084 76.4135 61.7314 76.3179 61.4281 76.1267C61.1268 75.9354 60.8911 75.6678 60.7211 75.324C60.553 74.9801 60.469 74.5783 60.469 74.1185C60.469 73.6549 60.553 73.2502 60.7211 72.9044C60.8911 72.5586 61.1268 72.2901 61.4281 72.0988C61.7314 71.9076 62.084 71.8119 62.4858 71.8119C62.8876 71.8119 63.2392 71.9076 63.5406 72.0988C63.8439 72.2901 64.0796 72.5586 64.2476 72.9044C64.4176 73.2502 64.5026 73.6549 64.5026 74.1185C64.5026 74.5783 64.4176 74.9801 64.2476 75.324C64.0796 75.6678 63.8439 75.9354 63.5406 76.1267C63.2392 76.3179 62.8876 76.4135 62.4858 76.4135ZM62.4858 75.7992C62.791 75.7992 63.0422 75.721 63.2392 75.5645C63.4363 75.408 63.5821 75.2023 63.6768 74.9473C63.7714 74.6923 63.8188 74.416 63.8188 74.1185C63.8188 73.821 63.7714 73.5438 63.6768 73.2869C63.5821 73.0299 63.4363 72.8223 63.2392 72.6639C63.0422 72.5055 62.791 72.4263 62.4858 72.4263C62.1806 72.4263 61.9294 72.5055 61.7324 72.6639C61.5354 72.8223 61.3895 73.0299 61.2948 73.2869C61.2002 73.5438 61.1529 73.821 61.1529 74.1185C61.1529 74.416 61.2002 74.6923 61.2948 74.9473C61.3895 75.2023 61.5354 75.408 61.7324 75.5645C61.9294 75.721 62.1806 75.7992 62.4858 75.7992ZM66.2304 73.6433V76.3208H65.5465V71.8699H66.2072V72.5653H66.2652C66.3695 72.3393 66.5279 72.1577 66.7404 72.0206C66.9529 71.8815 67.2272 71.8119 67.5634 71.8119C67.8647 71.8119 68.1284 71.8738 68.3544 71.9974C68.5805 72.1191 68.7562 72.3046 68.8818 72.5538C69.0074 72.801 69.0702 73.114 69.0702 73.4926V76.3208H68.3863V73.539C68.3863 73.1893 68.2955 72.9169 68.1139 72.7218C67.9323 72.5248 67.6831 72.4263 67.3663 72.4263C67.148 72.4263 66.9529 72.4736 66.781 72.5682C66.611 72.6629 66.4767 72.801 66.3782 72.9826C66.2797 73.1642 66.2304 73.3844 66.2304 73.6433Z" fill="white"/>
<g clip-path="url(#clip1_196_563)">
<path fill-rule="evenodd" clip-rule="evenodd" d="M54.9822 15.889C55.2926 15.9651 55.508 16.2806 55.4634 16.5935L54.3394 24.4852L60.3228 24.3855L55.882 18.5249C55.6808 18.2593 55.7125 17.8963 55.9529 17.7141C56.1933 17.5319 56.5514 17.5996 56.7527 17.8653L61.6988 24.3929C61.9543 24.7301 61.9178 25.1894 61.6193 25.4264C61.6133 25.4313 61.6071 25.436 61.6008 25.4406L49.7921 34.3884C49.483 34.6226 49.0226 34.5356 48.7639 34.1941L42.6202 26.086C42.3614 25.7445 42.4022 25.2778 42.7113 25.0436L52.7235 17.4571C52.9639 17.2749 53.3219 17.3426 53.5232 17.6082C53.7245 17.8738 53.6928 18.2369 53.4524 18.419L44.421 25.2624L47.6224 25.7425C47.9355 25.7894 48.1766 26.0858 48.1608 26.4045C48.145 26.7232 47.8783 26.9434 47.5652 26.8964L44.2252 26.3955L49.0291 32.7354L50.6971 27.2871L49.6539 27.1721C49.3403 27.1376 49.0891 26.8499 49.0927 26.5297C49.0964 26.2094 49.3535 25.9778 49.667 26.0124L52.9078 26.3697L54.3395 16.3179C54.3841 16.0049 54.6718 15.8129 54.9822 15.889ZM50.335 32.4627L59.4332 25.5688L54.1725 25.6564L53.9811 27.0002C53.9291 27.3658 53.6164 27.6089 53.2501 27.5686L51.8797 27.4175L50.335 32.4627Z" fill="black"/>
<path d="M45.8811 49.625C38.8078 30.3792 25.7287 30.6364 20 33.2086C34.108 23.0545 43.3706 38.5473 45.8811 48.1476C48.0656 34.2866 55.3912 33.4582 59.0527 35.1786C51.9201 35.8041 47.5417 45.4097 45.8811 49.625Z" fill="#FFD500"/>
</g>
<g clip-path="url(#clip2_196_563)">
<path d="M63.5508 53.9317C63.039 53.9317 62.5781 53.8406 62.1679 53.6583C61.7613 53.4725 61.4388 53.1991 61.2004 52.838C60.9656 52.477 60.8481 52.0318 60.8481 51.5024C60.8481 51.0467 60.9323 50.6699 61.1005 50.3719C61.2688 50.074 61.4984 49.8356 61.7894 49.6568C62.0803 49.4781 62.4081 49.3431 62.7726 49.252C63.1407 49.1573 63.521 49.089 63.9136 49.0469C64.3869 48.9978 64.7707 48.954 65.0652 48.9154C65.3596 48.8734 65.5735 48.8103 65.7067 48.7261C65.8434 48.6385 65.9117 48.5036 65.9117 48.3213V48.2897C65.9117 47.8936 65.7943 47.5869 65.5594 47.3695C65.3246 47.1522 64.9863 47.0435 64.5446 47.0435C64.0784 47.0435 63.7086 47.1452 63.4352 47.3485C63.1652 47.5518 62.983 47.792 62.8883 48.0689L61.1111 47.8165C61.2513 47.3257 61.4826 46.9156 61.8051 46.5861C62.1276 46.2531 62.522 46.0042 62.9882 45.8394C63.4544 45.6712 63.9697 45.587 64.5341 45.587C64.9232 45.587 65.3106 45.6326 65.6962 45.7237C66.0818 45.8149 66.434 45.9656 66.753 46.1759C67.072 46.3828 67.3279 46.665 67.5207 47.0225C67.717 47.3801 67.8152 47.827 67.8152 48.3633V53.7687H65.9854V52.6592H65.9223C65.8066 52.8836 65.6436 53.0939 65.4332 53.2902C65.2264 53.483 64.9653 53.639 64.6498 53.7582C64.3378 53.8739 63.9715 53.9317 63.5508 53.9317ZM64.0451 52.533C64.4272 52.533 64.7585 52.4577 65.0389 52.3069C65.3193 52.1527 65.5349 51.9494 65.6856 51.697C65.8399 51.4446 65.917 51.1694 65.917 50.8715V49.9197C65.8574 49.9688 65.7557 50.0144 65.612 50.0565C65.4718 50.0985 65.3141 50.1353 65.1388 50.1669C64.9635 50.1984 64.79 50.2265 64.6182 50.251C64.4465 50.2755 64.2975 50.2966 64.1713 50.3141C63.8874 50.3527 63.6332 50.4158 63.4089 50.5034C63.1845 50.591 63.0075 50.7137 62.8778 50.8715C62.7481 51.0257 62.6832 51.2255 62.6832 51.4709C62.6832 51.8214 62.8112 52.0861 63.0671 52.2649C63.323 52.4437 63.649 52.533 64.0451 52.533Z" fill="black"/>
<path d="M55.5006 53.7686V45.6921H57.3462V47.0382H57.4303C57.5776 46.572 57.83 46.2127 58.1875 45.9603C58.5486 45.7044 58.9605 45.5764 59.4232 45.5764C59.5283 45.5764 59.6458 45.5817 59.7755 45.5922C59.9087 45.5992 60.0191 45.6115 60.1067 45.629V47.38C60.0261 47.3519 59.8982 47.3274 59.7229 47.3063C59.5511 47.2818 59.3846 47.2695 59.2234 47.2695C58.8763 47.2695 58.5644 47.3449 58.2874 47.4956C58.014 47.6429 57.7984 47.8479 57.6407 48.1108C57.4829 48.3737 57.4041 48.677 57.4041 49.0205V53.7686H55.5006Z" fill="black"/>
<path d="M50.0151 53.9264C49.2264 53.9264 48.5428 53.7529 47.9644 53.4059C47.386 53.0589 46.9373 52.5734 46.6183 51.9494C46.3028 51.3254 46.1451 50.5963 46.1451 49.762C46.1451 48.9277 46.3028 48.1968 46.6183 47.5694C46.9373 46.9419 47.386 46.4546 47.9644 46.1076C48.5428 45.7606 49.2264 45.587 50.0151 45.587C50.8038 45.587 51.4874 45.7606 52.0657 46.1076C52.6441 46.4546 53.0911 46.9419 53.4066 47.5694C53.7256 48.1968 53.8851 48.9277 53.8851 49.762C53.8851 50.5963 53.7256 51.3254 53.4066 51.9494C53.0911 52.5734 52.6441 53.0589 52.0657 53.4059C51.4874 53.7529 50.8038 53.9264 50.0151 53.9264ZM50.0256 52.4016C50.4533 52.4016 50.8108 52.2842 51.0982 52.0493C51.3857 51.8109 51.5995 51.4919 51.7397 51.0923C51.8835 50.6927 51.9553 50.2475 51.9553 49.7567C51.9553 49.2625 51.8835 48.8155 51.7397 48.4159C51.5995 48.0128 51.3857 47.692 51.0982 47.4537C50.8108 47.2153 50.4533 47.0961 50.0256 47.0961C49.5874 47.0961 49.2228 47.2153 48.9319 47.4537C48.6445 47.692 48.4289 48.0128 48.2851 48.4159C48.1449 48.8155 48.0748 49.2625 48.0748 49.7567C48.0748 50.2475 48.1449 50.6927 48.2851 51.0923C48.4289 51.4919 48.6445 51.8109 48.9319 52.0493C49.2228 52.2842 49.5874 52.4016 50.0256 52.4016Z" fill="black"/>
<path d="M40.1626 53.9106C39.5282 53.9106 38.9603 53.7476 38.459 53.4216C37.9577 53.0956 37.5616 52.6224 37.2707 52.0019C36.9797 51.3815 36.8342 50.6278 36.8342 49.7409C36.8342 48.8435 36.9815 48.0864 37.2759 47.4694C37.5739 46.849 37.9752 46.381 38.48 46.0655C38.9848 45.7465 39.5474 45.587 40.1679 45.587C40.6411 45.587 41.0302 45.6676 41.3352 45.8289C41.6402 45.9866 41.882 46.1777 42.0608 46.402C42.2396 46.6229 42.3781 46.8314 42.4762 47.0277H42.5551V43H44.4638V53.7687H42.5919V52.4962H42.4762C42.3781 52.6925 42.2361 52.9011 42.0503 53.1219C41.8645 53.3393 41.6191 53.525 41.3142 53.6793C41.0092 53.8335 40.6253 53.9106 40.1626 53.9106ZM40.6937 52.349C41.0968 52.349 41.4404 52.2403 41.7243 52.023C42.0082 51.8021 42.2238 51.4954 42.3711 51.1028C42.5183 50.7102 42.5919 50.2527 42.5919 49.7304C42.5919 49.2081 42.5183 48.7542 42.3711 48.3686C42.2273 47.983 42.0135 47.6833 41.7296 47.4694C41.4491 47.2556 41.1038 47.1487 40.6937 47.1487C40.2695 47.1487 39.9155 47.2591 39.6316 47.4799C39.3476 47.7008 39.1338 48.0058 38.9901 48.3949C38.8463 48.784 38.7745 49.2291 38.7745 49.7304C38.7745 50.2352 38.8463 50.6857 38.9901 51.0818C39.1373 51.4744 39.3529 51.7846 39.6368 52.0125C39.9243 52.2368 40.2766 52.349 40.6937 52.349Z" fill="black"/>
<path d="M33.3047 53.7686V45.6921H35.2081V53.7686H33.3047Z" fill="black"/>
<path d="M33.4835 44.8099C33.7008 45.0098 33.9602 45.1097 34.2617 45.1097C34.5667 45.1097 34.8261 45.0098 35.0399 44.8099C35.2572 44.6066 35.3659 44.363 35.3659 44.0791C35.3659 43.7916 35.2572 43.548 35.0399 43.3482C34.8261 43.1449 34.5667 43.0432 34.2617 43.0432C33.9602 43.0432 33.7008 43.1449 33.4835 43.3482C33.2661 43.548 33.1575 43.7916 33.1575 44.0791C33.1575 44.363 33.2661 44.6066 33.4835 44.8099Z" fill="#FFD500"/>
<path d="M31.3474 43V53.7687H29.4439V43H31.3474Z" fill="black"/>
<path d="M23.2656 53.9317C22.7538 53.9317 22.2928 53.8406 21.8827 53.6583C21.476 53.4725 21.1535 53.1991 20.9152 52.838C20.6803 52.477 20.5629 52.0318 20.5629 51.5024C20.5629 51.0467 20.647 50.6699 20.8153 50.3719C20.9835 50.074 21.2131 49.8356 21.5041 49.6568C21.795 49.4781 22.1228 49.3431 22.4873 49.252C22.8554 49.1573 23.2358 49.089 23.6284 49.0469C24.1016 48.9978 24.4854 48.954 24.7799 48.9154C25.0744 48.8734 25.2882 48.8103 25.4214 48.7261C25.5581 48.6385 25.6265 48.5036 25.6265 48.3213V48.2897C25.6265 47.8936 25.509 47.5869 25.2742 47.3695C25.0393 47.1522 24.701 47.0435 24.2593 47.0435C23.7931 47.0435 23.4233 47.1452 23.1499 47.3485C22.88 47.5518 22.6977 47.792 22.603 48.0689L20.8258 47.8165C20.966 47.3257 21.1973 46.9156 21.5198 46.5861C21.8423 46.2531 22.2367 46.0042 22.7029 45.8394C23.1692 45.6712 23.6844 45.587 24.2488 45.587C24.6379 45.587 25.0253 45.6326 25.4109 45.7237C25.7965 45.8149 26.1488 45.9656 26.4678 46.1759C26.7868 46.3828 27.0427 46.665 27.2354 47.0225C27.4318 47.3801 27.5299 47.827 27.5299 48.3633V53.7687H25.7001V52.6592H25.637C25.5213 52.8836 25.3583 53.0939 25.148 53.2902C24.9411 53.483 24.68 53.639 24.3645 53.7582C24.0525 53.8739 23.6862 53.9317 23.2656 53.9317ZM23.7598 52.533C24.1419 52.533 24.4732 52.4577 24.7536 52.3069C25.034 52.1527 25.2496 51.9494 25.4004 51.697C25.5546 51.4446 25.6317 51.1694 25.6317 50.8715V49.9197C25.5721 49.9688 25.4705 50.0144 25.3267 50.0565C25.1865 50.0985 25.0288 50.1353 24.8535 50.1669C24.6782 50.1984 24.5047 50.2265 24.333 50.251C24.1612 50.2755 24.0122 50.2966 23.886 50.3141C23.6021 50.3527 23.3479 50.4158 23.1236 50.5034C22.8992 50.591 22.7222 50.7137 22.5925 50.8715C22.4628 51.0257 22.398 51.2255 22.398 51.4709C22.398 51.8214 22.5259 52.0861 22.7818 52.2649C23.0377 52.4437 23.3637 52.533 23.7598 52.533Z" fill="black"/>
<path d="M19.8557 45.6921L16.9795 53.7686H14.8762L12 45.6921H14.0296L15.8858 51.6917H15.9699L17.8313 45.6921H19.8557Z" fill="black"/>
</g>
</g>
<defs>
<clipPath id="clip0_196_563">
<rect width="80" height="80" fill="white"/>
</clipPath>
<clipPath id="clip1_196_563">
<rect width="43" height="43" fill="white" transform="translate(20 12)"/>
</clipPath>
<clipPath id="clip2_196_563">
<rect width="55.8152" height="10.9317" fill="white" transform="translate(12 43)"/>
</clipPath>
</defs>
</svg>
